<?xml version="1.0" standalone="no"?><!DOCTYPE svg PUBLIC "-//W3C//DTD SVG 1.1//EN" "http://www.w3.org/Graphics/SVG/1.1/DTD/svg11.dtd"><svg class="icon" width="200px" height="200.00px" viewBox="0 0 1024 1024" version="1.1" xmlns="http://www.w3.org/2000/svg"><path fill="#333333" d="M495.941 549.326l-198.232-99.072c-4.492-2.214-9.472-2.113-13.766-0.095L72.036 549.326c-5.858 2.312-10.056 7.986-10.056 14.624v270.474h0.096c0 5.577 2.929 10.869 8.203 13.755l205.07 110.712 0.096 0.095h0.097l0.101 0.094 0.097 0.098 0.096 0.098 0.097 0.091 0.096 0.098 0.102 0.098 0.096 0.098 0.097 0.095h0.096l0.101 0.095 0.097 0.101h0.096l0.097 0.091 0.294 0.098 0.097 0.098 0.096 0.092 0.102 0.098 0.096 0.101h0.097l0.096 0.091h0.198l0.097 0.098 0.096 0.098h0.101l0.097 0.092h0.584l0.096 0.101h0.589l0.096 0.095H285.501l0.097-0.095h0.588l0.097-0.101h0.487l0.097-0.092h0.101l0.097-0.098 0.096-0.098h0.193l0.102-0.091h0.096l0.097-0.101 0.096-0.095 0.101-0.095 0.097-0.098 0.29-0.098 0.101-0.091h0.096l0.097-0.101 0.096-0.095h0.102l0.096-0.095 0.097-0.098 0.096-0.098 0.097-0.098 0.101-0.091 0.097-0.098 0.096-0.098 0.097-0.094h0.101l0.096-0.095 205.065-110.712c5.274-2.788 8.208-8.178 8.208-13.755h0.096V563.95c2.934-6.638-1.168-12.312-7.127-14.624z m-205.46-67.619l44.629 22.316-171.867 88.302-50.583-27.318 177.821-83.3z m-22.264 437.744l-174.598-94.26V590.398l53.218 28.76v51.941l39.548 18.375v-49.058l81.832 44.245v234.79z m15.822-261.914l-78.903-42.61 173.527-89.163 77.634 38.763-172.258 93.01z m667.838-108.211l-198.232-99.072c-4.492-2.214-9.472-2.113-13.771-0.095l-211.903 99.167c-5.857 2.312-10.055 7.986-10.055 14.624v270.376h0.096c0 5.58 2.929 10.869 8.203 13.759l205.069 110.708 0.097 0.098h0.097l0.096 0.095 0.097 0.094 0.101 0.098 0.096 0.098 0.097 0.091 0.096 0.102 0.102 0.094 0.096 0.098h0.097l0.096 0.095 0.097 0.095h0.101l0.097 0.101 0.294 0.091 0.096 0.098 0.097 0.098 0.097 0.095 0.096 0.095h0.198l0.096 0.101h0.198l0.097 0.091 0.096 0.098h0.097l0.096 0.098h0.492l0.097 0.092h0.584l0.096 0.101H741.336l0.096-0.101h0.584l0.097-0.092h0.492l0.096-0.098h0.097l0.097-0.098 0.101-0.091h0.193l0.096-0.101h0.097l0.101-0.095 0.097-0.095 0.096-0.098 0.097-0.098 0.294-0.091 0.097-0.101h0.101l0.096-0.095 0.097-0.095h0.096l0.102-0.098 0.096-0.094 0.097-0.102 0.096-0.091 0.097-0.098 0.101-0.098 0.097-0.094v-0.095h0.096l0.097-0.098 208.292-110.614c5.27-2.788 8.203-8.178 8.203-13.755h0.097l0.004-270.474a15.87 15.87 0 0 0-10.152-14.624z m-205.46-67.619l44.629 22.316-171.867 88.302-50.584-27.318 177.822-83.3z m-22.264 437.744l-174.598-94.26V590.398l53.218 28.76v51.941l39.548 18.375v-49.058l81.832 44.245v234.79z m15.822-261.914l-78.903-42.61 173.526-89.163 77.634 38.763-172.257 93.01z m-11.229-496.032L530.51 62.433c-4.493-2.214-9.472-2.116-13.767-0.098l-211.902 99.17c-5.863 2.305-10.061 7.98-10.061 14.617V446.6h0.097c0 5.577 2.929 10.869 8.203 13.752l205.069 110.715 0.097 0.095h0.096l0.101 0.098 0.097 0.094 0.097 0.098 0.096 0.095 0.097 0.094 0.101 0.098 0.096 0.098 0.097 0.095h0.097l0.101 0.102 0.096 0.091h0.097l0.096 0.094 0.295 0.102 0.096 0.094 0.097 0.095 0.101 0.098 0.097 0.095h0.096l0.101 0.094h0.193l0.097 0.102 0.101 0.091h0.097l0.096 0.098h0.193l0.101 0.098h0.194l0.096 0.095H518.794l0.096-0.095h0.193l0.102-0.098h0.193l0.096-0.098h0.101l0.097-0.091 0.097-0.102H520.063l0.096-0.094h0.097l0.096-0.095 0.102-0.098 0.096-0.095 0.097-0.094 0.294-0.102 0.097-0.094h0.193l0.101-0.091 0.096-0.102h0.097l0.097-0.095 0.101-0.098 0.096-0.098 0.097-0.094 0.096-0.095 0.102-0.098 0.096-0.094v-0.098h0.097l0.096-0.095 205.07-110.715c5.274-2.785 8.203-8.175 8.203-13.752h0.096V176.122c3.03-6.637-1.168-12.312-7.026-14.617zM534.515 99.27l44.624 22.316-171.862 88.302-50.584-27.318 177.822-83.3z m-33.3 437.65l-174.602-94.264V207.87l53.222 28.757v51.937l39.548 18.372v-48.957l81.832 44.246V536.92z m15.528-267.302l-78.903-42.609 173.527-89.167 77.634 38.763-172.258 93.013z"  /></svg>